# xmcd
#
# Track frame offsets: 
#        150
#        18605
#        38917
#        51525
#        74760
#        100235
#        125887
#        140565
#        162990
#
# Disc length: 2679 seconds
#
# Revision: 2
# Processed by: cddbd v1.5.1PL0 Copyright (c) Steve Scherf et al.
# Submitted via: ExactAudioCopy v0.95a5
#
DISCID=8f0a7509
DTITLE=Jeff Beck - Blow by Blow
DYEAR=1975
DGENRE=Instrumental Rock
TTITLE0=You Know What I Mean
TTITLE1=She's a Woman
TTITLE2=Constipated Duck
TTITLE3=Air Blower
TTITLE4=Scatterbrain
TTITLE5=Cause We've Ended as Lovers
TTITLE6=Thelonius
TTITLE7=Freeway Jam
TTITLE8=Diamond Dust
EXTD=YEAR: 1975
EXTT0=
EXTT1=
EXTT2=
EXTT3=
EXTT4=
EXTT5=
EXTT6=
EXTT7=
EXTT8=
PLAYORDER=
